<?xml version="1.0" encoding="utf-8"?>
<!-- Generator: Adobe Illustrator 17.0.0, SVG Export Plug-In . SVG Version: 6.00 Build 0)  -->
<!DOCTYPE svg PUBLIC "-//W3C//DTD SVG 1.1//EN" "http://www.w3.org/Graphics/SVG/1.1/DTD/svg11.dtd">
<svg version="1.1" id="Capa_1" xmlns="http://www.w3.org/2000/svg" xmlns:xlink="http://www.w3.org/1999/xlink" x="0px" y="0px"
	 width="2834.65px" height="2834.65px" viewBox="0 0 2834.65 2834.65" enable-background="new 0 0 2834.65 2834.65"
	 xml:space="preserve">
<g>
	<path fill="#FFFFFF" d="M2486.635,1233.421c47.542-28.148,88.073-67.236,116.37-116.718
		c43.017-75.143,54.355-162.221,31.778-245.222c-38.143-140.44-166.598-238.508-312.359-238.508
		c-28.396,0-56.743,3.78-84.244,11.289l-8.305,2.238l-27.302,18.848L2486.635,1233.421z"/>
	<path fill="#FFFFFF" d="M712.044,688.273L467.22,1259.48l248.604,107.617c99.71,61.915,251.09,198.674,177.29,431.215
		l-125.67,219.362L1375.153,2336l36.652-51.919c19.544-27.7,64.352-27.7,83.796,0l71.562,101.301l583.093-349.855l-135.914-237.215
		c-72.756-229.358,74.646-365.72,171.67-427.634l209.764-96.378L2119.87,722.537l-201.807,139.395
		c31.131-41.823,56.991-103.639,56.991-218.765c0-108.86-12.134-199.321-32.623-275.608l-25.661-76.884
		C1823.277,58.981,1632.709,0,1464.868,0C986.906,0,931.605,368.952,931.605,646.499c0,113.983,45.901,186.938,77.232,230.104
		L712.044,688.273z M1453.778,1989.228c-95.98,0-174.057-78.077-174.057-174.057c0-95.98,78.077-174.057,174.057-174.057
		s174.057,78.077,174.057,174.057C1627.835,1911.151,1549.758,1989.228,1453.778,1989.228z M1453.778,1541.652
		c-95.98,0-174.057-78.077-174.057-174.057c0-95.98,78.077-174.057,174.057-174.057s174.057,78.077,174.057,174.057
		C1627.835,1463.575,1549.758,1541.652,1453.778,1541.652z M1627.835,298.384c54.953,0,99.461,44.559,99.461,99.461
		s-44.509,99.461-99.461,99.461c-54.952,0-99.461-44.559-99.461-99.461S1572.883,298.384,1627.835,298.384z M1279.72,298.384
		c54.952,0,99.461,44.559,99.461,99.461s-44.509,99.461-99.461,99.461s-99.461-44.559-99.461-99.461
		S1224.768,298.384,1279.72,298.384z M1229.989,596.768c27.501,0,49.731,22.23,49.731,49.731
		c0,59.776,84.841,117.166,174.604,118.11c87.327,0,173.51-58.533,173.51-118.11c0-27.501,22.229-49.731,49.731-49.731
		c27.501,0,49.731,22.23,49.731,49.731c0,128.206-144.12,217.572-273.519,217.572c-132.333-1.343-273.519-89.117-273.519-217.572
		C1180.259,618.998,1202.488,596.768,1229.989,596.768z"/>
	<polygon fill="#FFFFFF" points="1317.317,2417.907 718.012,2103.957 677.034,2175.469 1270.072,2484.844 	"/>
	<polygon fill="#FFFFFF" points="1626.045,2467.339 1625.647,2468.035 1682.191,2548.002 2233.406,2180.542 2199.788,2121.81 
		1624.851,2466.742 	"/>
	<path fill="#FFFFFF" d="M2324.065,2239.622l-584.485,389.69l30.932,43.763c1.84,3.183,3.929,6.067,4.973,7.012
		c8.952,14.521,18.052,27.302,27.949,39.039c4.277,5.073,8.752,9.797,13.278,14.521c9.847,10.394,20.29,20.191,31.231,28.993
		c5.172,4.227,10.443,8.106,15.715,11.836c12.134,8.653,24.915,16.561,38.293,23.573c4.625,2.387,9.15,4.525,13.576,6.564
		c15.118,7.012,30.385,12.781,45.205,17.057l12.284,3.183c16.312,4.078,32.723,6.913,48.686,8.355
		c4.078,0.348,8.106,0.547,12.134,0.746l6.365,0.298c3.382,0.199,6.863,0.398,10.344,0.398h90.162
		c161.426,0,298.981-110.7,326.979-263.224C2492.204,2438.446,2431.881,2308.847,2324.065,2239.622z"/>
	<path fill="#FFFFFF" d="M584.187,2239.224c-108.214,69.076-168.885,198.972-144.319,332.201
		c27.998,152.524,165.504,263.224,326.93,263.224h90.162c3.481,0,6.962-0.199,10.394-0.448l6.366-0.298
		c4.078-0.199,8.056-0.398,11.985-0.746c16.063-1.442,32.474-4.277,51.422-9.001l9.399-2.487
		c15.068-4.376,30.336-10.145,45.205-17.058c4.724-2.138,9.25-4.277,13.925-6.714c13.278-6.962,26.009-14.869,38.044-23.423
		c5.421-3.829,10.742-7.708,15.566-11.687c11.239-9.051,21.683-18.848,31.529-29.192c4.526-4.774,9.001-9.499,13.278-14.571
		c9.847-11.737,18.997-24.517,26.705-37.149l81.26-115.127L584.187,2239.224z"/>
	<path fill="#FFFFFF" d="M375.069,1222.132l251.936-587.817l-16.859-10.692l-13.626-5.968c-27.551-7.46-55.848-11.289-84.244-11.289
		c-145.81,0-274.265,98.069-312.359,238.508c-22.578,83.001-11.289,170.079,31.778,245.222
		C265.264,1148.829,315.243,1194.233,375.069,1222.132z"/>
</g>
</svg>
